<?xml version="1.0" standalone="no"?><!DOCTYPE svg PUBLIC "-//W3C//DTD SVG 1.1//EN" "http://www.w3.org/Graphics/SVG/1.1/DTD/svg11.dtd"><svg t="1486373942879" class="icon" style="" viewBox="0 0 1024 1024" version="1.1" xmlns="http://www.w3.org/2000/svg" p-id="1569" xmlns:xlink="http://www.w3.org/1999/xlink" width="200" height="200"><defs><style type="text/css"></style></defs><path d="M317.8 238c1 1 2.3 1.5 3.6 1.5s2.6-0.5 3.6-1.5l17.2-17.2 17.2 17.2c1 1 2.3 1.5 3.6 1.5s2.6-0.5 3.6-1.5c2-2 2-5.1 0-7.1l-17.2-17.2 17.2-17.2c2-2 2-5.1 0-7.1s-5.1-2-7.1 0L342 206.6l-17.2-17.2c-2-2-5.1-2-7.1 0s-2 5.1 0 7.1l17.2 17.2-17.2 17.2c-1.9 2-1.9 5.1 0.1 7.1zM811.9 275c-2-2-5.1-2-7.1 0l-17.2 17.2-17.1-17.2c-2-2-5.1-2-7.1 0s-2 5.1 0 7.1l17.2 17.2-17.2 17.2c-2 2-2 5.1 0 7.1 1 1 2.3 1.5 3.6 1.5s2.6-0.5 3.6-1.5l17.2-17.2 17.2 17.2c1 1 2.3 1.5 3.6 1.5 1.3 0 2.6-0.5 3.6-1.5 2-2 2-5.1 0-7.1L795 299.3l17.2-17.2c1.7-1.9 1.7-5.1-0.3-7.1zM172.5 495.8c-2-2-5.1-2-7.1 0L148.2 513 131 495.8c-2-2-5.1-2-7.1 0s-2 5.1 0 7.1l17.2 17.2-17.2 17.2c-2 2-2 5.1 0 7.1 1 1 2.3 1.5 3.6 1.5 1.3 0 2.6-0.5 3.6-1.5l17.2-17.2 17.2 17.2c1 1 2.3 1.5 3.6 1.5 1.3 0 2.6-0.5 3.6-1.5 2-2 2-5.1 0-7.1l-17.2-17.2 17.2-17.2c1.7-2 1.7-5.1-0.2-7.1zM868.1 724.5c-18.4 0-33.4 15-33.4 33.4s15 33.4 33.4 33.4 33.4-15 33.4-33.4-15-33.4-33.4-33.4z m0 56.7c-12.9 0-23.3-10.5-23.3-23.3 0-12.9 10.5-23.3 23.3-23.3 12.9 0 23.3 10.5 23.3 23.3s-10.4 23.3-23.3 23.3zM99.1 620.4c-18.4 0-33.4 15-33.4 33.4s15 33.4 33.4 33.4 33.4-15 33.4-33.4-15-33.4-33.4-33.4z m0 56.7c-12.9 0-23.3-10.5-23.3-23.3s10.5-23.3 23.3-23.3c12.9 0 23.3 10.5 23.3 23.3s-10.4 23.3-23.3 23.3zM140.5 265.7c18.4 0 33.4-15 33.4-33.4s-15-33.4-33.4-33.4-33.4 15-33.4 33.4 15 33.4 33.4 33.4z m0-56.8c12.9 0 23.3 10.5 23.3 23.3 0 12.9-10.5 23.3-23.3 23.3s-23.3-10.5-23.3-23.3 10.5-23.3 23.3-23.3zM902.3 417.9c-2.8 0-5 2.2-5 5v35.4c0 2.8 2.2 5 5 5s5-2.2 5-5v-35.4c0-2.7-2.2-5-5-5zM846.8 455.6l30.7 17.7c0.8 0.5 1.7 0.7 2.5 0.7 1.7 0 3.4-0.9 4.3-2.5 1.4-2.4 0.6-5.5-1.8-6.9l-30.7-17.7c-2.4-1.4-5.5-0.6-6.9 1.8-1.3 2.4-0.5 5.5 1.9 6.9zM847.4 516.2c0.9 0 1.7-0.2 2.5-0.7l30.7-17.7c2.4-1.4 3.2-4.5 1.8-6.9-1.4-2.4-4.5-3.2-6.9-1.8l-30.7 17.7c-2.4 1.4-3.2 4.5-1.8 6.9 1 1.6 2.7 2.5 4.4 2.5zM898.3 502.5c-2.8 0-5 2.2-5 5v35.4c0 2.8 2.2 5 5 5s5-2.2 5-5v-35.4c0.1-2.8-2.2-5-5-5zM953.8 510.3l-30.7-17.7c-2.4-1.4-5.5-0.6-6.9 1.8-1.4 2.4-0.6 5.5 1.8 6.9l30.7 17.7c0.8 0.5 1.7 0.7 2.5 0.7 1.7 0 3.4-0.9 4.3-2.5 1.5-2.5 0.7-5.5-1.7-6.9zM957.6 452.1c-1.4-2.4-4.5-3.2-6.9-1.8L920.1 468c-2.4 1.4-3.2 4.5-1.8 6.9 0.9 1.6 2.6 2.5 4.3 2.5 0.9 0 1.7-0.2 2.5-0.7l30.7-17.7c2.4-1.4 3.2-4.5 1.8-6.9zM568.8 165.9c2.8 0 5-2.2 5-5v-35.4c0-2.8-2.2-5-5-5s-5 2.2-5 5v35.4c-0.1 2.7 2.2 5 5 5zM513.3 158.1l30.7 17.7c0.8 0.5 1.7 0.7 2.5 0.7 1.7 0 3.4-0.9 4.3-2.5 1.4-2.4 0.6-5.5-1.8-6.9l-30.7-17.7c-2.4-1.4-5.5-0.6-6.9 1.8-1.3 2.4-0.5 5.5 1.9 6.9zM513.9 218.8c0.9 0 1.7-0.2 2.5-0.7l30.7-17.7c2.4-1.4 3.2-4.5 1.8-6.9-1.4-2.4-4.5-3.2-6.9-1.8l-30.7 17.7c-2.4 1.4-3.2 4.5-1.8 6.9 0.9 1.6 2.6 2.5 4.4 2.5zM564.8 250.5c2.8 0 5-2.2 5-5V210c0-2.8-2.2-5-5-5s-5 2.2-5 5v35.4c0 2.8 2.3 5.1 5 5.1zM584.6 203.8l30.7 17.7c0.8 0.5 1.7 0.7 2.5 0.7 1.7 0 3.4-0.9 4.3-2.5 1.4-2.4 0.6-5.5-1.8-6.9l-30.7-17.7c-2.4-1.4-5.5-0.6-6.9 1.8-1.3 2.4-0.5 5.5 1.9 6.9zM589.1 179.9c0.9 0 1.7-0.2 2.5-0.7l30.7-17.7c2.4-1.4 3.2-4.5 1.8-6.9-1.4-2.4-4.5-3.2-6.9-1.8l-30.7 17.7c-2.4 1.4-3.2 4.5-1.8 6.9 1 1.6 2.7 2.5 4.4 2.5zM229.8 365.2c0.9 1.6 2.6 2.5 4.3 2.5 0.9 0 1.7-0.2 2.5-0.7l10.6-6.1v12.3c0 2.8 2.2 5 5 5s5-2.2 5-5v-12.3l10.6 6.1c0.8 0.5 1.7 0.7 2.5 0.7 1.7 0 3.4-0.9 4.3-2.5 1.4-2.4 0.6-5.5-1.8-6.9l-10.6-6.1 10.6-6.1c2.4-1.4 3.2-4.5 1.8-6.9-1.4-2.4-4.5-3.2-6.9-1.8l-10.6 6.1v-12.3c0-2.8-2.2-5-5-5s-5 2.2-5 5v12.3l-10.6-6.1c-2.4-1.4-5.5-0.6-6.9 1.8-1.4 2.4-0.6 5.5 1.8 6.9l10.6 6.1-10.6 6.1c-2.2 1.4-3 4.5-1.6 6.9zM121.6 755.4c-1.4-2.4-4.5-3.2-6.9-1.8l-10.6 6.1v-12.3c0-2.8-2.2-5-5-5s-5 2.2-5 5v12.3l-10.6-6.1c-2.4-1.4-5.5-0.6-6.9 1.8-1.4 2.4-0.6 5.5 1.8 6.9l10.6 6.1-10.6 6.1c-2.4 1.4-3.2 4.5-1.8 6.9 0.9 1.6 2.6 2.5 4.3 2.5 0.9 0 1.7-0.2 2.5-0.7l10.6-6.1v12.3c0 2.8 2.2 5 5 5s5-2.2 5-5v-12.3l10.6 6.1c0.8 0.5 1.7 0.7 2.5 0.7 1.7 0 3.4-0.9 4.3-2.5 1.4-2.4 0.6-5.5-1.8-6.9l-10.6-6.1 10.6-6.1c2.6-1.5 3.4-4.5 2-6.9zM668.6 413.1c0.9 1.6 2.6 2.5 4.3 2.5 0.9 0 1.7-0.2 2.5-0.7l10.6-6.1v12.3c0 2.8 2.2 5 5 5s5-2.2 5-5v-12.3l10.6 6.1c0.8 0.5 1.7 0.7 2.5 0.7 1.7 0 3.4-0.9 4.3-2.5 1.4-2.4 0.6-5.5-1.8-6.9l-10.6-6.1 10.6-6.1c2.4-1.4 3.2-4.5 1.8-6.9-1.4-2.4-4.5-3.2-6.9-1.8l-10.6 6.1v-12.3c0-2.8-2.2-5-5-5s-5 2.2-5 5v12.3l-10.6-6.1c-2.4-1.4-5.5-0.6-6.9 1.8-1.4 2.4-0.6 5.5 1.8 6.9l10.6 6.1-10.6 6.1c-2.2 1.4-3 4.5-1.6 6.9zM598.3 782.9c12.5-13.2 24-28.2 34.2-44.7 132-35.2 148.9-90.5 150-112.8 1.2-24.2-13.2-45.9-35.8-54.2-14.1-5.1-47-3-64.2-1.5 0.3-6.8 0.6-13.6 0.6-20.6 0-5.6-4.5-10-10-10H252.3c-5.6 0-10 4.5-10 10 0 96 34 181.4 86.6 235.7-84.2 7.4-174.3 23.1-174.3 56.2 0 61.7 308.5 62.4 321.6 62.4s321.6-0.7 321.6-62.4c-0.1-37.3-116.2-52.2-199.5-58.1z m141.4-192.8c11.9 4.3 23.5 16.6 22.6 34.3-0.6 13.2-11.2 56.7-116.3 89 18-36.3 30.1-78.2 34.8-123.3 21-2 50.1-3.2 58.9 0z m-77-30.8c-2.5 94.8-39.6 177.5-94.3 224.8l-0.1 0.1c-30.7 26.5-66.9 41.9-105.7 41.9-38.1 0-73.7-14.8-104-40.4l-0.1-0.1c-55.6-47-93.5-130.5-96-226.2h400.2zM476.1 883.5c-192.4 0-297-27.2-301.5-42.1 2.4-8.3 48.4-28.4 174.3-37.9 33.2 27.1 72.1 42.7 113.7 42.7 42.4 0 82-16.3 115.7-44.3C721 810.2 775 832.4 777.7 841c-4.5 15.2-109.1 42.5-301.6 42.5zM379.7 493.3c-3.6 4.2-3.2 10.5 1 14.2 1.9 1.7 4.3 2.5 6.6 2.5 2.8 0 5.6-1.2 7.6-3.4 30.1-34.4 31.1-57.1 4.3-93.7-15.5-21.2 9.3-53.2 9.5-53.6 3.4-4.3 2.7-10.6-1.6-14.1-4.3-3.4-10.7-2.7-14.1 1.6-1.4 1.8-34.6 44.3-10 77.9 21 28.7 20.4 41.6-3.3 68.6zM459.7 493.3c-3.6 4.2-3.2 10.5 1 14.2 1.9 1.7 4.3 2.5 6.6 2.5 2.8 0 5.6-1.2 7.6-3.4 30.1-34.4 31.1-57.1 4.3-93.7-15.5-21.2 9.3-53.2 9.5-53.6 3.4-4.3 2.7-10.6-1.6-14.1-4.3-3.4-10.7-2.7-14.1 1.6-1.4 1.8-34.6 44.3-10 77.9 21 28.7 20.4 41.6-3.3 68.6zM543 424.7c21 28.7 20.4 41.5-3.3 68.6-3.6 4.2-3.2 10.5 1 14.2 1.9 1.7 4.3 2.5 6.6 2.5 2.8 0 5.6-1.2 7.6-3.4 30.1-34.4 31.1-57.1 4.3-93.7-15.5-21.2 9.3-53.2 9.5-53.6 3.4-4.3 2.7-10.6-1.6-14.1-4.3-3.4-10.7-2.7-14.1 1.6-1.4 1.8-34.6 44.3-10 77.9z" fill="#ffffff" p-id="1570"></path></svg>