<?xml version="1.0" encoding="utf-8"?>
<!-- Generator: Adobe Illustrator 21.0.2, SVG Export Plug-In . SVG Version: 6.00 Build 0)  -->
<svg version="1.1" id="图层_1" xmlns="http://www.w3.org/2000/svg" xmlns:xlink="http://www.w3.org/1999/xlink" x="0px" y="0px"
	 viewBox="0 0 48 48" style="enable-background:new 0 0 48 48;" xml:space="preserve">
<style type="text/css">
	.st0{fill:#FFFFFF;}
</style>
<path class="st0" d="M20.2,34.2h-0.1c-0.7,0-1.2-0.5-1.2-1.2V15c0-0.7,0.5-1.2,1.2-1.2h0.1c0.7,0,1.2,0.5,1.2,1.2v18
	C21.4,33.7,20.9,34.2,20.2,34.2L20.2,34.2z"/>
<path class="st0" d="M27.8,34.1h-0.1c-0.7,0-1.2-0.5-1.2-1.2V15.1c0-0.7,0.5-1.2,1.2-1.2h0.1c0.7,0,1.2,0.5,1.2,1.2v17.8
	C29,33.6,28.5,34.1,27.8,34.1L27.8,34.1z"/>
</svg>
